<?xml version="1.0" encoding="UTF-8"?><!DOCTYPE svg PUBLIC "-//W3C//DTD SVG 1.1//EN" "http://www.w3.org/Graphics/SVG/1.1/DTD/svg11.dtd"><svg xmlns="http://www.w3.org/2000/svg" style="display: none;"><symbol id="email" viewBox="0 0 18 11"><title>icon-mail</title><path d="M.6 1l7.5 3.85a2.26 2.26 0 0 0 1.81 0L17.41 1c.49-.25 1-1 0-1H.55C-.36 0 .11.78.6 1zm17 1.9L9.91 6.75a2.26 2.26 0 0 1-1.81 0L.39 2.93c-.38-.2-.38.07-.38.2v7a1.14 1.14 0 0 0 1 .87h16a1.14 1.14 0 0 0 1-.91v-7c0-.17 0-.4-.39-.2z"/></symbol><symbol id="house-white" viewBox="0 0 17.97 16.04"><title>icon-home</title><path data-name="icon home" d="M17.74 8.23l-8-7.91a1 1 0 0 0-1.41 0l-8 7.91c-.54.43-.36.78.21.78h1.67v6.2c0 .44 0 .8.82.8h3.94V9.82h4v6.19h4.13c.61 0 .63-.36.63-.8v-6.2h1.67c.57 0 .75-.35.34-.78z"/></symbol><symbol id="house" viewBox="0 0 14 16.05"><title>icon-house</title><path data-name="projects copy" d="M14 5.87v9.62a.54.54 0 0 1-.14.39.49.49 0 0 1-.37.15h-4a.49.49 0 0 1-.37-.15.54.54 0 0 1-.12-.39V9H5v6.48a.54.54 0 0 1-.14.39.49.49 0 0 1-.37.15h-4a.46.46 0 0 1-.34-.12.54.54 0 0 1-.15-.41V5.87a.53.53 0 0 1 .17-.42L6.55.12a.48.48 0 0 1 .63 0l6.62 5.33a.49.49 0 0 1 .2.42z"/></symbol><symbol id="icon-search" viewBox="0 0 31.98 31.98"><title>icon-search</title><path data-name="icon search" d="M31.27 27.01l-7.65-7.6a12.44 12.44 0 0 0 1.82-6.5A13.19 13.19 0 0 0 12.52.01 12.52 12.52 0 0 0 0 12.52a13.2 13.2 0 0 0 12.91 12.92 12.49 12.49 0 0 0 6.31-1.71l7.69 7.69a1.91 1.91 0 0 0 2.7 0l1.91-1.9c.78-.76.48-1.7-.25-2.51zM3.85 12.53a8.67 8.67 0 0 1 8.67-8.67 9.34 9.34 0 0 1 9.06 9.05 8.67 8.67 0 0 1-8.67 8.67 9.34 9.34 0 0 1-9.06-9.05z"/></symbol><symbol id="pin" viewBox="0 0 10 16"><title>icon-mark</title><path d="M5 0a5 5 0 0 0-5 5c0 4.77 5 11 5 11s5-6.23 5-11a5 5 0 0 0-5-5zm0 7.76a2.7 2.7 0 1 1 2.7-2.7A2.7 2.7 0 0 1 5 7.76z"/></symbol><symbol id="tel" viewBox="0 0 10.02 14"><title>icon-phone</title><path d="M3.89 6.32c.86-1.49 1.92-3 2.6-2.58 1 .56 1.63 1.1 3-.71S9.24.66 8.29.11s-4.08 1-6.39 5.05-2.27 7.43-1.18 8.06 2.2 1.6 3.11-.46.16-2.35-.84-2.91c-.71-.39 0-2.05.9-3.53z"/></symbol></svg>